<svg width="32" height="32" xmlns="http://www.w3.org/2000/svg">

 <g>
  <title>background</title>
  <rect fill="none" id="canvas_background" height="402" width="582" y="-1" x="-1"/>
 </g>
 <g>
  <title>Layer 1</title>
  <path id="svg_1" fill="#00517a" d="m20.377,16.519l6.567,-6.566c0.962,-0.963 0.962,-2.539 0,-3.502l-0.876,-0.875c-0.963,-0.964 -2.539,-0.964 -3.501,0l-6.567,6.566l-6.567,-6.567c-0.962,-0.963 -2.538,-0.963 -3.501,0l-0.876,0.875c-0.962,0.963 -0.962,2.539 0,3.502l6.566,6.566l-6.566,6.567c-0.962,0.963 -0.962,2.538 0,3.501l0.876,0.876c0.963,0.963 2.539,0.963 3.501,0l6.567,-6.566l6.567,6.566c0.962,0.963 2.538,0.963 3.501,0l0.876,-0.876c0.962,-0.963 0.962,-2.538 0,-3.501l-6.567,-6.566z"/>
 </g>
</svg>